<svg width="124" height="21" fill="none" xmlns="http://www.w3.org/2000/svg"><path d="M18.2 20.081L11.116.481H7.252L.14 20.081h3.5l1.372-3.948h8.344l1.372 3.948H18.2zM9.184 4.261l3.108 8.848H6.076l3.108-8.848zM27.57.117c-4.144-.252-6.328 1.848-6.328 5.684v.28h-2.128v2.912h2.128v11.088h3.024V8.993h3.304V6.081h-3.304v-.28c0-2.044 1.092-2.968 3.304-2.772V.117zm5.354 5.964H29.9v14h3.024v-7.056c0-1.428.42-2.464 1.288-3.08.868-.644 1.876-.924 3.024-.84V5.83c-2.1 0-3.556.868-4.312 2.604V6.081zm9.962-2.66c.784-.784.784-1.96.028-2.716a1.895 1.895 0 00-2.744 0c-.756.756-.756 1.932 0 2.716.784.756 1.96.756 2.716 0zm.168 16.66v-14H40.03v14h3.024zM58.214 8.07c-1.149-1.568-2.773-2.352-4.9-2.352-1.933 0-3.557.7-4.929 2.128-1.372 1.428-2.044 3.164-2.044 5.236 0 2.044.672 3.808 2.044 5.236 1.372 1.428 2.996 2.128 4.928 2.128 2.128 0 3.752-.784 4.9-2.38v2.016h3.024v-14h-3.024V8.07zm-7.589 8.232c-.84-.868-1.26-1.932-1.26-3.22 0-1.288.42-2.352 1.26-3.192.84-.868 1.904-1.288 3.164-1.288 1.26 0 2.324.42 3.164 1.288.84.84 1.26 1.904 1.26 3.192 0 1.288-.42 2.352-1.26 3.22-.84.84-1.904 1.26-3.164 1.26-1.26 0-2.324-.42-3.164-1.26zm22.06-10.584c-1.987 0-3.415.728-4.34 2.156V6.081h-3.023v14h3.024v-7.504c0-2.716 1.428-4.032 3.556-4.032 1.932 0 3.136 1.148 3.136 3.248v8.288h3.024v-8.596c0-3.584-2.156-5.768-5.376-5.768zm11.909 4.228c0-.98.896-1.484 2.044-1.484 1.26 0 2.156.532 2.632 1.596l2.548-1.428c-.98-1.82-2.856-2.912-5.18-2.912-1.456 0-2.688.392-3.668 1.176-.98.784-1.456 1.82-1.456 3.108-.056 2.94 2.772 3.78 4.872 4.312 1.484.364 2.66.896 2.66 1.792 0 1.036-.784 1.568-2.38 1.568-1.596 0-2.632-.672-3.108-2.016l-2.604 1.512c.896 2.044 2.94 3.276 5.712 3.276 1.568 0 2.856-.392 3.892-1.148 1.036-.756 1.568-1.82 1.568-3.164.056-2.996-2.744-3.892-4.9-4.368-1.456-.42-2.632-.896-2.632-1.82zm16.578 2.996l6.16-6.86h-3.696l-5.432 6.188V.481H95.18v19.6h3.024v-6.468l5.74 6.468h3.612l-6.384-7.14zm18.945-4.872c-1.148-1.568-2.772-2.352-4.9-2.352-1.932 0-3.556.7-4.928 2.128-1.372 1.428-2.044 3.164-2.044 5.236 0 2.044.672 3.808 2.044 5.236 1.372 1.428 2.996 2.128 4.928 2.128 2.128 0 3.752-.784 4.9-2.38v2.016h3.024v-14h-3.024V8.07zm-7.588 8.232c-.84-.868-1.26-1.932-1.26-3.22 0-1.288.42-2.352 1.26-3.192.84-.868 1.904-1.288 3.164-1.288 1.26 0 2.324.42 3.164 1.288.84.84 1.26 1.904 1.26 3.192 0 1.288-.42 2.352-1.26 3.22-.84.84-1.904 1.26-3.164 1.26-1.26 0-2.324-.42-3.164-1.26z" fill="#fff"/></svg>