<svg xmlns="http://www.w3.org/2000/svg" xmlns:xlink="http://www.w3.org/1999/xlink"><symbol id="icon-burger" viewBox="0 0 32 32">
<path d="M4 24H28V21.3333H4V24ZM4 17.3333H28V14.6667H4V17.3333ZM4 8V10.6667H28V8H4Z"/>
</symbol><symbol id="logo-back-circle" viewBox="0 0 48 48">
<circle cx="16" cy="24" r="16"/>
</symbol><symbol id="logo-caption" viewBox="0 0 124 21">
<path d="M18.2 20.0811L11.116 0.481053H7.252L0.14 20.0811H3.64L5.012 16.1331H13.356L14.728 20.0811H18.2ZM9.184 4.26105L12.292 13.1091H6.076L9.184 4.26105ZM27.5702 0.117053C23.4262 -0.134947 21.2422 1.96505 21.2422 5.80105V6.08105H19.1142V8.99305H21.2422V20.0811H24.2662V8.99305H27.5702V6.08105H24.2662V5.80105C24.2662 3.75705 25.3582 2.83305 27.5702 3.02905V0.117053ZM32.9236 6.08105H29.8996V20.0811H32.9236V13.0251C32.9236 11.5971 33.3436 10.5611 34.2116 9.94505C35.0796 9.30105 36.0876 9.02105 37.2356 9.10505V5.82905C35.1356 5.82905 33.6796 6.69705 32.9236 8.43305V6.08105ZM42.8859 3.42105C43.6699 2.63705 43.6699 1.46105 42.9139 0.705054C42.1579 -0.0789461 40.9259 -0.0789461 40.1699 0.705054C39.4139 1.46105 39.4139 2.63705 40.1699 3.42105C40.9539 4.17705 42.1299 4.17705 42.8859 3.42105ZM43.0539 20.0811V6.08105H40.0299V20.0811H43.0539ZM58.2131 8.06905C57.0651 6.50105 55.4411 5.71705 53.3131 5.71705C51.3811 5.71705 49.7571 6.41705 48.3851 7.84505C47.0131 9.27305 46.3411 11.0091 46.3411 13.0811C46.3411 15.1251 47.0131 16.8891 48.3851 18.3171C49.7571 19.7451 51.3811 20.4451 53.3131 20.4451C55.4411 20.4451 57.0651 19.6611 58.2131 18.0651V20.0811H61.2371V6.08105H58.2131V8.06905ZM50.6251 16.3011C49.7851 15.4331 49.3651 14.3691 49.3651 13.0811C49.3651 11.7931 49.7851 10.7291 50.6251 9.88905C51.4651 9.02105 52.5291 8.60105 53.7891 8.60105C55.0491 8.60105 56.1131 9.02105 56.9531 9.88905C57.7931 10.7291 58.2131 11.7931 58.2131 13.0811C58.2131 14.3691 57.7931 15.4331 56.9531 16.3011C56.1131 17.1411 55.0491 17.5611 53.7891 17.5611C52.5291 17.5611 51.4651 17.1411 50.6251 16.3011ZM72.6858 5.71705C70.6978 5.71705 69.2698 6.44505 68.3458 7.87305V6.08105H65.3218V20.0811H68.3458V12.5771C68.3458 9.86105 69.7738 8.54505 71.9018 8.54505C73.8338 8.54505 75.0378 9.69305 75.0378 11.7931V20.0811H78.0618V11.4851C78.0618 7.90105 75.9058 5.71705 72.6858 5.71705ZM84.5939 9.94505C84.5939 8.96505 85.4899 8.46105 86.6379 8.46105C87.8979 8.46105 88.7939 8.99305 89.2699 10.0571L91.8179 8.62905C90.8379 6.80905 88.9619 5.71705 86.6379 5.71705C85.1819 5.71705 83.9499 6.10905 82.9699 6.89305C81.9899 7.67705 81.5139 8.71305 81.5139 10.0011C81.4579 12.9411 84.2859 13.7811 86.3859 14.3131C87.8699 14.6771 89.0459 15.2091 89.0459 16.1051C89.0459 17.1411 88.2619 17.6731 86.6659 17.6731C85.0699 17.6731 84.0339 17.0011 83.5579 15.6571L80.9539 17.1691C81.8499 19.2131 83.8939 20.4451 86.6659 20.4451C88.2339 20.4451 89.5219 20.0531 90.5579 19.2971C91.5939 18.5411 92.1259 17.4771 92.1259 16.1331C92.1819 13.1371 89.3819 12.2411 87.2259 11.7651C85.7699 11.3451 84.5939 10.8691 84.5939 9.94505ZM101.172 12.9411L107.332 6.08105H103.636L98.2041 12.2691V0.481053H95.1801V20.0811H98.2041V13.6131L103.944 20.0811H107.556L101.172 12.9411ZM120.117 8.06905C118.969 6.50105 117.345 5.71705 115.217 5.71705C113.285 5.71705 111.661 6.41705 110.289 7.84505C108.917 9.27305 108.245 11.0091 108.245 13.0811C108.245 15.1251 108.917 16.8891 110.289 18.3171C111.661 19.7451 113.285 20.4451 115.217 20.4451C117.345 20.4451 118.969 19.6611 120.117 18.0651V20.0811H123.141V6.08105H120.117V8.06905ZM112.529 16.3011C111.689 15.4331 111.269 14.3691 111.269 13.0811C111.269 11.7931 111.689 10.7291 112.529 9.88905C113.369 9.02105 114.433 8.60105 115.693 8.60105C116.953 8.60105 118.017 9.02105 118.857 9.88905C119.697 10.7291 120.117 11.7931 120.117 13.0811C120.117 14.3691 119.697 15.4331 118.857 16.3011C118.017 17.1411 116.953 17.5611 115.693 17.5611C114.433 17.5611 113.369 17.1411 112.529 16.3011Z" fill="white"/>
</symbol><symbol id="logo-front-circle" viewBox="0 0 48 48">
<circle cx="32" cy="24" r="15" fill="white" stroke="#316099" stroke-width="2"/>
<path d="M39.3 30L34.38 16H30.96L26.06 30H29.04L29.88 27.48H35.46L36.3 30H39.3ZM32.68 19.18L34.6 24.9H30.76L32.68 19.18Z" fill="#316099"/>
</symbol></svg>